<?xml version="1.0" encoding="utf-8"?>
<!-- Generator: Adobe Illustrator 24.0.3, SVG Export Plug-In . SVG Version: 6.00 Build 0)  -->
<svg version="1.1" id="レイヤー_1" xmlns="http://www.w3.org/2000/svg" xmlns:xlink="http://www.w3.org/1999/xlink" x="0px"
	 y="0px" viewBox="0 0 184.15 83.2" style="enable-background:new 0 0 184.15 83.2;" xml:space="preserve">
<style type="text/css">
	.st0{fill:url(#SVGID_1_);}
	.st1{fill:url(#SVGID_2_);}
	.st2{fill:url(#SVGID_3_);}
	.st3{fill:url(#SVGID_4_);}
	.st4{fill:url(#SVGID_5_);}
	.st5{fill:url(#SVGID_6_);}
	.st6{clip-path:url(#SVGID_8_);}
	.st7{clip-path:url(#SVGID_10_);fill:url(#SVGID_11_);}
	.st8{clip-path:url(#SVGID_13_);fill:none;stroke:#000000;stroke-width:0.0914;stroke-miterlimit:10;}
	.st9{clip-path:url(#SVGID_15_);fill:url(#SVGID_16_);}
	.st10{clip-path:url(#SVGID_18_);fill:none;stroke:#000000;stroke-width:0.0914;stroke-miterlimit:10;}
	.st11{clip-path:url(#SVGID_20_);fill:url(#SVGID_21_);}
	.st12{clip-path:url(#SVGID_23_);fill:none;stroke:#000000;stroke-width:0.0914;stroke-miterlimit:10;}
	.st13{clip-path:url(#SVGID_25_);fill:url(#SVGID_26_);}
	.st14{clip-path:url(#SVGID_28_);fill:none;stroke:#000000;stroke-width:0.0914;stroke-miterlimit:10;}
	.st15{clip-path:url(#SVGID_30_);fill:url(#SVGID_31_);}
	.st16{clip-path:url(#SVGID_33_);fill:none;stroke:#000000;stroke-width:0.0914;stroke-miterlimit:10;}
	.st17{clip-path:url(#SVGID_33_);fill:#F7F7F7;}
	.st18{clip-path:url(#SVGID_35_);fill:url(#SVGID_36_);}
	.st19{clip-path:url(#SVGID_38_);fill:url(#SVGID_39_);}
	.st20{clip-path:url(#SVGID_41_);fill:url(#SVGID_42_);}
	.st21{fill:url(#SVGID_43_);}
	.st22{fill:url(#SVGID_44_);}
	.st23{fill:url(#SVGID_45_);}
	.st24{fill:url(#SVGID_46_);}
	.st25{fill:url(#SVGID_47_);}
	.st26{fill:url(#SVGID_48_);}
	.st27{fill:#FFFFFF;}
</style>
<g>
	<linearGradient id="SVGID_1_" gradientUnits="userSpaceOnUse" x1="159.5465" y1="57.3507" x2="184.1477" y2="57.3507">
		<stop  offset="0" style="stop-color:#FFFFFF"/>
		<stop  offset="0.1376" style="stop-color:#000000"/>
	</linearGradient>
	<path class="st0" d="M183.67,57.43c-2.38-13.5-12.97-24.57-24.12-25.8v2.6c7.68,1.13,14.02,10.03,16.35,23.2
		c2.09,11.87-0.32,20.2-6.14,22.56v3.08C179.82,81.22,185.96,70.4,183.67,57.43z"/>
	<linearGradient id="SVGID_2_" gradientUnits="userSpaceOnUse" x1="0" y1="24.8782" x2="52.4819" y2="24.8782">
		<stop  offset="0" style="stop-color:#FFFFFF"/>
		<stop  offset="0.1376" style="stop-color:#000000"/>
	</linearGradient>
	<path class="st1" d="M51.29,47.09c-2.02,0-3.58-0.29-4.88-1.15c-1.45-0.86-2.7-2.23-4.62-4.97L30.32,24.91
		c2.04-0.29,2.73-0.43,3.95-0.86c5.02-1.73,7.88-6.34,6.97-11.52C40.01,5.55,33.86,1.15,24.18,0.2v2.76c5.26,1.02,8.33,4.2,9.26,9.5
		c0.57,3.24,0.06,6.05-1.44,7.78c-1.47,1.87-4.19,2.81-7.93,2.81h-6.55L14.96,8.5c-0.82-4.66,0.09-5.86,4.88-5.9V0H0l0.47,2.66h1.37
		c4.25,0,5.3,1.08,6.2,6.19l5.64,31.97c0.91,5.18,0.23,6.19-4.01,6.26H8.3l0.47,2.66h19.51l-0.47-2.66h-0.94
		c-4.26-0.07-5.32-1.15-6.22-6.26l-2.65-15.05h5.26l17.19,23.98h12.03l-0.47-2.66H51.29z"/>
	<linearGradient id="SVGID_3_" gradientUnits="userSpaceOnUse" x1="87.4277" y1="26.7144" x2="139.9095" y2="26.7144">
		<stop  offset="0" style="stop-color:#FFFFFF"/>
		<stop  offset="0.1376" style="stop-color:#000000"/>
	</linearGradient>
	<path class="st2" d="M138.72,48.93c-2.02,0-3.58-0.29-4.88-1.15c-1.45-0.86-2.7-2.23-4.62-4.97l-11.47-16.06
		c2.04-0.29,2.73-0.43,3.95-0.86c5.02-1.73,7.88-6.34,6.97-11.52c-1.27-7.2-7.78-11.65-17.98-12.4v2.68
		c5.82,0.82,9.2,4.04,10.19,9.65c0.57,3.24,0.06,6.05-1.44,7.78c-1.47,1.87-4.19,2.81-7.93,2.81h-6.55l-2.56-14.55
		c-0.74-4.21-0.08-5.59,3.59-5.85V1.84H87.43L87.9,4.5h1.37c4.25,0,5.3,1.08,6.2,6.19l5.64,31.97c0.91,5.18,0.23,6.19-4.01,6.26
		h-1.37l0.47,2.66h19.51l-0.47-2.66h-0.94c-4.26-0.07-5.32-1.15-6.22-6.26l-2.65-15.05h5.26l17.19,23.98h12.03l-0.47-2.66H138.72z"
		/>
	<linearGradient id="SVGID_4_" gradientUnits="userSpaceOnUse" x1="52.4819" y1="52.6317" x2="76.9393" y2="52.6317">
		<stop  offset="0" style="stop-color:#FFFFFF"/>
		<stop  offset="0.1376" style="stop-color:#000000"/>
	</linearGradient>
	<path class="st3" d="M60.82,52.64c-1.12-6.34-0.91-12.53,0.5-16.35c1.4-3.71,3.57-5.9,6.6-6.66v-2.79
		c-10.76,1.3-17.32,12.34-14.95,25.79c2.35,13.35,12.83,24.43,23.97,25.78v-2.67C69.36,74.58,63.13,65.76,60.82,52.64z"/>
	<linearGradient id="SVGID_5_" gradientUnits="userSpaceOnUse" x1="139.9097" y1="57.4418" x2="164.2557" y2="57.4418">
		<stop  offset="0" style="stop-color:#FFFFFF"/>
		<stop  offset="0.1376" style="stop-color:#000000"/>
	</linearGradient>
	<path class="st4" d="M148.24,57.43c-1.12-6.34-0.91-12.53,0.5-16.35c1.35-3.58,3.42-5.76,6.29-6.59v-2.81
		c-10.58,1.47-16.99,12.43-14.64,25.75c2.35,13.31,12.76,24.35,23.86,25.77v-2.67C156.73,79.28,150.55,70.49,148.24,57.43z"/>
	<linearGradient id="SVGID_6_" gradientUnits="userSpaceOnUse" x1="73.015" y1="52.6384" x2="96.7194" y2="52.6384">
		<stop  offset="0" style="stop-color:#FFFFFF"/>
		<stop  offset="0.1376" style="stop-color:#000000"/>
	</linearGradient>
	<path class="st5" d="M73.01,26.96v2.66c7.28,1.67,13.22,10.36,15.45,23.02c2.13,12.06-0.39,20.47-6.42,22.67v3.02
		c10.24-1.7,16.51-12.6,14.2-25.68C93.92,39.49,83.84,28.66,73.01,26.96z"/>
	<g id="アートワーク_10_1_">
		<g>
			<defs>
				<rect id="SVGID_7_" x="155.89" y="51.59" width="14.31" height="17.53"/>
			</defs>
			<clipPath id="SVGID_8_">
				<use xlink:href="#SVGID_7_"  style="overflow:visible;"/>
			</clipPath>
			<g class="st6">
				<defs>
					<path id="SVGID_9_" d="M161.07,62.77h1.47v1.57h-1.47V62.77z M163.32,62.77h1.47v1.57h-1.47V62.77z M161.07,60.57h1.47v1.57
						h-1.47V60.57z M163.32,60.57h1.47v1.57h-1.47V60.57z M163.04,52.49c-0.3,0-0.6,0.13-0.81,0.4l-2.63,3.32l-2.87,3.62
						c-0.07,0.08-0.1,0.18-0.1,0.27c0,0.22,0.16,0.43,0.4,0.43c0.22,0,0.4,0.19,0.4,0.43v6.83c0,0.24,0.18,0.43,0.4,0.43h10.41
						c0.22,0,0.4-0.19,0.4-0.43v-6.83c0-0.24,0.18-0.43,0.4-0.43h0c0.34,0,0.53-0.43,0.31-0.7l-1.63-2.06c0-0.01,0-0.01,0-0.02
						v-3.64c0-0.31-0.23-0.55-0.52-0.55h-0.84c-0.29,0-0.52,0.25-0.52,0.55v1.3l0-0.01l0,0l-0.03-0.04l-0.01-0.02
						c-0.03-0.04-0.07-0.09-0.11-0.14l-0.01-0.01l-0.03-0.04l0,0l-0.11-0.14L165.52,55l-0.03-0.04l0,0c-0.05-0.06-0.08-0.1-0.1-0.12
						l-1.54-1.94C163.65,52.63,163.35,52.49,163.04,52.49C163.05,52.49,163.04,52.49,163.04,52.49"/>
				</defs>
				<clipPath id="SVGID_10_">
					<use xlink:href="#SVGID_9_"  style="overflow:visible;"/>
				</clipPath>
				
					<linearGradient id="SVGID_11_" gradientUnits="userSpaceOnUse" x1="-173.9874" y1="470.3773" x2="-173.904" y2="470.3773" gradientTransform="matrix(153.5548 0 0 -153.5548 26873.2344 72289.0547)">
					<stop  offset="0" style="stop-color:#FFFFFF"/>
					<stop  offset="0.2222" style="stop-color:#000000"/>
					<stop  offset="1" style="stop-color:#000000"/>
				</linearGradient>
				<rect x="156.64" y="52.49" class="st7" width="12.93" height="15.72"/>
			</g>
			<g class="st6">
				<defs>
					<rect id="SVGID_12_" x="155.89" y="51.59" width="14.31" height="17.53"/>
				</defs>
				<clipPath id="SVGID_13_">
					<use xlink:href="#SVGID_12_"  style="overflow:visible;"/>
				</clipPath>
				<path class="st8" d="M169.35,59.83l-1.63-2.06c0-0.01,0-0.01,0-0.02v-3.64c0-0.31-0.23-0.55-0.52-0.55h-0.84
					c-0.29,0-0.52,0.25-0.52,0.55v1.3l0-0.01l0,0l-0.03-0.04l-0.01-0.02c-0.03-0.04-0.07-0.09-0.11-0.14l-0.01-0.01l-0.03-0.04l0,0
					l-0.11-0.14L165.52,55l-0.03-0.04l0,0c-0.05-0.06-0.08-0.1-0.1-0.12l-1.54-1.94c-0.21-0.27-0.51-0.4-0.81-0.4
					c-0.3,0-0.6,0.13-0.81,0.4l-2.63,3.32l-2.87,3.62c-0.07,0.08-0.1,0.18-0.1,0.27c0,0.22,0.16,0.43,0.4,0.43
					c0.22,0,0.4,0.19,0.4,0.43v6.83c0,0.24,0.18,0.43,0.4,0.43h10.41c0.22,0,0.4-0.19,0.4-0.43v-6.83c0-0.24,0.18-0.43,0.4-0.43h0
					C169.39,60.53,169.57,60.11,169.35,59.83z M162.54,64.34h-1.47v-1.57h1.47V64.34z M162.54,62.14h-1.47v-1.57h1.47V62.14z
					 M164.79,64.34h-1.47v-1.57h1.47V64.34z M164.79,62.14h-1.47v-1.57h1.47V62.14z"/>
			</g>
			<g class="st6">
				<defs>
					<rect id="SVGID_14_" x="163.32" y="60.57" width="1.47" height="1.57"/>
				</defs>
				<clipPath id="SVGID_15_">
					<use xlink:href="#SVGID_14_"  style="overflow:visible;"/>
				</clipPath>
				
					<linearGradient id="SVGID_16_" gradientUnits="userSpaceOnUse" x1="-161.8787" y1="486.9968" x2="-161.7953" y2="486.9968" gradientTransform="matrix(17.61 0 0 -17.61 3013.9995 8637.3613)">
					<stop  offset="0" style="stop-color:#FFFFFF"/>
					<stop  offset="0.2222" style="stop-color:#000000"/>
					<stop  offset="1" style="stop-color:#000000"/>
				</linearGradient>
				<rect x="163.32" y="60.57" class="st9" width="1.47" height="1.57"/>
			</g>
			<g class="st6">
				<defs>
					<rect id="SVGID_17_" x="155.89" y="51.59" width="14.31" height="17.53"/>
				</defs>
				<clipPath id="SVGID_18_">
					<use xlink:href="#SVGID_17_"  style="overflow:visible;"/>
				</clipPath>
				<rect x="163.32" y="60.57" class="st10" width="1.47" height="1.57"/>
			</g>
			<g class="st6">
				<defs>
					<rect id="SVGID_19_" x="163.32" y="62.77" width="1.47" height="1.57"/>
				</defs>
				<clipPath id="SVGID_20_">
					<use xlink:href="#SVGID_19_"  style="overflow:visible;"/>
				</clipPath>
				
					<linearGradient id="SVGID_21_" gradientUnits="userSpaceOnUse" x1="-161.8787" y1="488.1215" x2="-161.7953" y2="488.1215" gradientTransform="matrix(17.61 0 0 -17.61 3013.9995 8659.3711)">
					<stop  offset="0" style="stop-color:#FFFFFF"/>
					<stop  offset="0.2222" style="stop-color:#000000"/>
					<stop  offset="1" style="stop-color:#000000"/>
				</linearGradient>
				<rect x="163.32" y="62.77" class="st11" width="1.47" height="1.57"/>
			</g>
			<g class="st6">
				<defs>
					<rect id="SVGID_22_" x="155.89" y="51.59" width="14.31" height="17.53"/>
				</defs>
				<clipPath id="SVGID_23_">
					<use xlink:href="#SVGID_22_"  style="overflow:visible;"/>
				</clipPath>
				<rect x="163.32" y="62.77" class="st12" width="1.47" height="1.57"/>
			</g>
			<g class="st6">
				<defs>
					<rect id="SVGID_24_" x="161.07" y="60.57" width="1.47" height="1.57"/>
				</defs>
				<clipPath id="SVGID_25_">
					<use xlink:href="#SVGID_24_"  style="overflow:visible;"/>
				</clipPath>
				
					<linearGradient id="SVGID_26_" gradientUnits="userSpaceOnUse" x1="-160.4786" y1="486.9968" x2="-160.3952" y2="486.9968" gradientTransform="matrix(17.61 0 0 -17.61 2987.0996 8637.3613)">
					<stop  offset="0" style="stop-color:#FFFFFF"/>
					<stop  offset="0.2222" style="stop-color:#000000"/>
					<stop  offset="1" style="stop-color:#000000"/>
				</linearGradient>
				<rect x="161.07" y="60.57" class="st13" width="1.47" height="1.57"/>
			</g>
			<g class="st6">
				<defs>
					<rect id="SVGID_27_" x="155.89" y="51.59" width="14.31" height="17.53"/>
				</defs>
				<clipPath id="SVGID_28_">
					<use xlink:href="#SVGID_27_"  style="overflow:visible;"/>
				</clipPath>
				<rect x="161.07" y="60.57" class="st14" width="1.47" height="1.57"/>
			</g>
			<g class="st6">
				<defs>
					<rect id="SVGID_29_" x="161.07" y="62.77" width="1.47" height="1.57"/>
				</defs>
				<clipPath id="SVGID_30_">
					<use xlink:href="#SVGID_29_"  style="overflow:visible;"/>
				</clipPath>
				
					<linearGradient id="SVGID_31_" gradientUnits="userSpaceOnUse" x1="-160.4786" y1="488.1215" x2="-160.3952" y2="488.1215" gradientTransform="matrix(17.61 0 0 -17.61 2987.0996 8659.3711)">
					<stop  offset="0" style="stop-color:#FFFFFF"/>
					<stop  offset="0.2222" style="stop-color:#000000"/>
					<stop  offset="1" style="stop-color:#000000"/>
				</linearGradient>
				<rect x="161.07" y="62.77" class="st15" width="1.47" height="1.57"/>
			</g>
			<g class="st6">
				<defs>
					<rect id="SVGID_32_" x="155.89" y="51.59" width="14.31" height="17.53"/>
				</defs>
				<clipPath id="SVGID_33_">
					<use xlink:href="#SVGID_32_"  style="overflow:visible;"/>
				</clipPath>
				<rect x="161.07" y="62.77" class="st16" width="1.47" height="1.57"/>
				<rect x="161.07" y="60.57" class="st17" width="1.47" height="1.57"/>
			</g>
			<g class="st6">
				<defs>
					<rect id="SVGID_34_" x="161.07" y="62.77" width="1.47" height="1.57"/>
				</defs>
				<clipPath id="SVGID_35_">
					<use xlink:href="#SVGID_34_"  style="overflow:visible;"/>
				</clipPath>
				
					<linearGradient id="SVGID_36_" gradientUnits="userSpaceOnUse" x1="-160.4786" y1="488.1215" x2="-160.3952" y2="488.1215" gradientTransform="matrix(17.61 0 0 -17.61 2987.0996 8659.3711)">
					<stop  offset="0" style="stop-color:#FFFFFF"/>
					<stop  offset="0.2222" style="stop-color:#F5F5F7"/>
					<stop  offset="1" style="stop-color:#F5F5F7"/>
				</linearGradient>
				<rect x="161.07" y="62.77" class="st18" width="1.47" height="1.57"/>
			</g>
			<g class="st6">
				<defs>
					<rect id="SVGID_37_" x="163.32" y="60.57" width="1.47" height="1.57"/>
				</defs>
				<clipPath id="SVGID_38_">
					<use xlink:href="#SVGID_37_"  style="overflow:visible;"/>
				</clipPath>
				
					<linearGradient id="SVGID_39_" gradientUnits="userSpaceOnUse" x1="-161.8787" y1="486.9968" x2="-161.7953" y2="486.9968" gradientTransform="matrix(17.61 0 0 -17.61 3013.9995 8637.3613)">
					<stop  offset="0" style="stop-color:#FFFFFF"/>
					<stop  offset="0.2222" style="stop-color:#F5F5F7"/>
					<stop  offset="1" style="stop-color:#F5F5F7"/>
				</linearGradient>
				<rect x="163.32" y="60.57" class="st19" width="1.47" height="1.57"/>
			</g>
			<g class="st6">
				<defs>
					<rect id="SVGID_40_" x="163.32" y="62.77" width="1.47" height="1.57"/>
				</defs>
				<clipPath id="SVGID_41_">
					<use xlink:href="#SVGID_40_"  style="overflow:visible;"/>
				</clipPath>
				
					<linearGradient id="SVGID_42_" gradientUnits="userSpaceOnUse" x1="-161.8787" y1="488.1215" x2="-161.7953" y2="488.1215" gradientTransform="matrix(17.61 0 0 -17.61 3013.9995 8659.3711)">
					<stop  offset="0" style="stop-color:#FFFFFF"/>
					<stop  offset="0.2222" style="stop-color:#EFEEF3"/>
					<stop  offset="1" style="stop-color:#EFEEF3"/>
				</linearGradient>
				<rect x="163.32" y="62.77" class="st20" width="1.47" height="1.57"/>
			</g>
		</g>
	</g>
	<g>
		<linearGradient id="SVGID_43_" gradientUnits="userSpaceOnUse" x1="71.4263" y1="46.169" x2="78.133" y2="46.169">
			<stop  offset="0" style="stop-color:#FFFFFF"/>
			<stop  offset="0.1301" style="stop-color:#000000"/>
			<stop  offset="0.4451" style="stop-color:#000000"/>
			<stop  offset="0.5823" style="stop-color:#000000"/>
		</linearGradient>
		<polygon class="st21" points="78.13,44.89 71.43,44.89 71.43,47.45 78.13,47.42 		"/>
		<linearGradient id="SVGID_44_" gradientUnits="userSpaceOnUse" x1="71.4263" y1="48.8589" x2="78.133" y2="48.8589">
			<stop  offset="0" style="stop-color:#FFFFFF"/>
			<stop  offset="0.1301" style="stop-color:#000000"/>
			<stop  offset="0.4451" style="stop-color:#000000"/>
			<stop  offset="0.5823" style="stop-color:#000000"/>
		</linearGradient>
		<polygon class="st22" points="78.13,47.71 71.43,47.69 71.43,48.62 71.43,50.03 78.13,50.02 		"/>
		<linearGradient id="SVGID_45_" gradientUnits="userSpaceOnUse" x1="71.4263" y1="50.6009" x2="78.133" y2="50.6009">
			<stop  offset="0" style="stop-color:#FFFFFF"/>
			<stop  offset="0.1301" style="stop-color:#000000"/>
			<stop  offset="0.4451" style="stop-color:#000000"/>
			<stop  offset="0.5823" style="stop-color:#000000"/>
		</linearGradient>
		<polygon class="st23" points="78.13,50.02 71.43,50.03 71.43,51.17 78.13,51.18 		"/>
		<linearGradient id="SVGID_46_" gradientUnits="userSpaceOnUse" x1="67.0663" y1="53.2488" x2="78.133" y2="53.2488">
			<stop  offset="0" style="stop-color:#FFFFFF"/>
			<stop  offset="0.1301" style="stop-color:#000000"/>
			<stop  offset="0.4451" style="stop-color:#000000"/>
			<stop  offset="0.5823" style="stop-color:#000000"/>
		</linearGradient>
		<polygon class="st24" points="71.43,51.17 71.43,52.69 67.07,52.69 67.07,55.27 78.13,55.32 78.13,51.18 		"/>
		<linearGradient id="SVGID_47_" gradientUnits="userSpaceOnUse" x1="67.0663" y1="57.397" x2="83.1661" y2="57.397">
			<stop  offset="0" style="stop-color:#FFFFFF"/>
			<stop  offset="0.1301" style="stop-color:#000000"/>
			<stop  offset="0.4451" style="stop-color:#000000"/>
			<stop  offset="0.5823" style="stop-color:#000000"/>
		</linearGradient>
		<polygon class="st25" points="83.17,57.04 78.13,57.04 78.13,55.62 67.07,55.57 67.07,59.14 83.17,59.22 		"/>
		<linearGradient id="SVGID_48_" gradientUnits="userSpaceOnUse" x1="67.0663" y1="62.9864" x2="83.1661" y2="62.9864">
			<stop  offset="0" style="stop-color:#FFFFFF"/>
			<stop  offset="0.1301" style="stop-color:#000000"/>
			<stop  offset="0.4451" style="stop-color:#000000"/>
			<stop  offset="0.5823" style="stop-color:#000000"/>
		</linearGradient>
		<polygon class="st26" points="67.07,61.29 67.07,64.71 71.43,64.71 67.07,64.71 83.17,64.77 83.17,61.21 		"/>
		<rect x="76.08" y="49.32" class="st27" width="1.16" height="1.1"/>
		<rect x="73.15" y="51.42" class="st27" width="1.16" height="1.1"/>
		<rect x="70.85" y="53.53" class="st27" width="1.16" height="1.1"/>
		<rect x="72.42" y="57.05" class="st27" width="1.16" height="1.1"/>
		<rect x="75.5" y="56.07" class="st27" width="1.16" height="1.1"/>
		<rect x="70.85" y="62.28" class="st27" width="1.16" height="1.1"/>
		<rect x="76.98" y="62.83" class="st27" width="1.16" height="1.1"/>
		<rect x="76.08" y="52.98" class="st27" width="1.16" height="1.1"/>
		<rect x="73.73" y="48.93" class="st27" width="1.16" height="1.1"/>
		<rect x="76.08" y="45.78" class="st27" width="1.16" height="1.1"/>
		<rect x="73.15" y="46.17" class="st27" width="1.16" height="1.1"/>
	</g>
</g>
</svg>
