<?xml version="1.0" encoding="utf-8"?>
<!-- Generator: Adobe Illustrator 24.0.3, SVG Export Plug-In . SVG Version: 6.00 Build 0)  -->
<svg version="1.1" id="レイヤー_1" xmlns="http://www.w3.org/2000/svg" xmlns:xlink="http://www.w3.org/1999/xlink" x="0px"
	 y="0px" viewBox="0 0 411.68 112.66" style="enable-background:new 0 0 411.68 112.66;" xml:space="preserve">
<style type="text/css">
	.st0{fill:#FFFFFF;stroke:#231815;stroke-miterlimit:10;}
	.st1{fill:#04601C;stroke:#231815;stroke-miterlimit:10;}
	.st2{fill:#7E0000;stroke:#231815;stroke-miterlimit:10;}
	.st3{fill:#1F2773;stroke:#231815;stroke-miterlimit:10;}
	.st4{fill:#958F11;stroke:#231815;stroke-miterlimit:10;}
</style>
<path class="st0" d="M71.09,55.99c-3.72,2.39-8.28,4.21-13.73,5.49c3.66,2.05,7.14,5.09,10.46,9.11c3.32,4.02,6.29,8.29,8.91,12.81
	c2.62,4.54,4.66,8.65,6.12,12.29c1.46,3.64,2.18,6.15,2.18,7.54c0,1.42-0.41,2.83-1.26,4.23c-0.87,1.4-2.03,2.51-3.48,3.33
	c-1.48,0.82-3.19,1.21-5.11,1.21c-2.32,0.02-4.25-0.57-5.82-1.7c-1.57-1.15-2.93-2.62-4.05-4.38c-1.14-1.76-2.67-4.38-4.62-7.79
	l-8.26-14.57c-2.95-5.34-5.61-9.4-7.93-12.18c-2.34-2.81-4.7-4.71-7.1-5.74c-2.4-1.03-5.43-1.53-9.07-1.53l-7.2,0.02l0.08,34.67
	c0,4.56-0.92,7.93-2.81,10.09c-1.89,2.16-4.35,3.24-7.4,3.27c-3.27,0-5.8-1.13-7.61-3.37c-1.81-2.26-2.71-5.57-2.71-9.94l-0.1-42.85
	"/>
<path class="st1" d="M81.18,20.77c-1.28-3.5-3.15-6.57-5.59-9.23c-2.46-2.64-5.27-4.67-8.46-6.07c-2.64-1.28-5.59-2.11-8.85-2.53
	C55,2.53,51.07,2.32,46.47,2.34l-33.4,0.06c-4.43,0.02-7.63,1.09-9.62,3.2C1.48,7.72,0.5,11.14,0.5,15.85L0.58,56h70.51
	c2.18-1.4,4.07-2.99,5.65-4.79c4.27-4.82,6.37-11.24,6.35-19.3C83.09,27.99,82.44,24.26,81.18,20.77z M59.64,42.37
	c-1.77,2.2-4.35,3.75-7.71,4.67c-3.36,0.92-7.49,1.38-12.43,1.38l-18.39,0.04l-0.06-29.64l18.94-0.06c7.04,0,11.78,0.52,14.18,1.59
	c2.54,1.13,4.52,2.83,5.96,5.11c1.42,2.28,2.14,4.92,2.14,7.91C62.3,37.18,61.41,40.19,59.64,42.37z"/>
<path class="st2" d="M197.17,55.46v0.69c0,8.35-1.06,15.93-3.17,22.76c-2.12,6.8-5.31,12.73-9.56,17.73
	c-4.23,5-9.44,8.83-15.62,11.47c-6.18,2.66-13.26,3.98-21.22,3.98c-7.93,0-15.03-1.36-21.3-4.08c-6.27-2.72-11.51-6.55-15.7-11.51
	s-7.38-10.93-9.52-17.9c-2.19-7.1-3.25-14.81-3.2-23.11c0.01-0.01,0.01-0.01,0.02-0.02l20.81,0c0,0.19-0.02,0.36-0.02,0.54
	c0,6.13,0.73,11.68,2.18,16.64c1.46,4.94,3.5,9.06,6.16,12.33c2.66,3.25,5.68,5.69,9.13,7.31c3.42,1.63,7.2,2.43,11.31,2.43
	c5.25,0,10.07-1.38,14.48-4.19c4.41-2.81,7.91-7.12,10.52-12.96c2.6-5.84,3.89-13.02,3.89-21.56v-0.54H197.17z"/>
<path class="st0" d="M197.17,55.46h-20.81c-0.06-7.66-1.26-14.34-3.6-19.99c-2.4-5.78-5.82-10.15-10.27-13.13s-9.54-4.46-15.3-4.46
	c-4.11,0-7.91,0.82-11.39,2.47c-3.48,1.63-6.47,4.04-8.99,7.18c-2.52,3.14-4.48,7.14-5.94,12.02c-1.42,4.75-2.12,10.05-2.16,15.91
	H97.9c0.04-8.08,1.14-15.51,3.32-22.27c2.24-6.91,5.49-12.79,9.72-17.65c4.25-4.86,9.4-8.58,15.5-11.16
	c6.08-2.57,13-3.87,20.75-3.87c10.5,0,19.53,2.28,27.06,6.83c7.53,4.52,13.24,10.99,17.11,19.34
	C195.16,34.86,197.09,44.46,197.17,55.46z"/>
<path class="st3" d="M295.26,20.85c-1.26-3.5-3.13-6.57-5.57-9.23c-2.44-2.64-5.25-4.69-8.44-6.11c-2.62-1.26-5.57-2.11-8.85-2.53
	c-3.27-0.42-7.2-0.63-11.82-0.63h-33.4c-4.43,0-7.63,1.07-9.62,3.16c-1.97,2.11-2.97,5.53-2.97,10.24v41.91h67.72
	c3.4-1.74,6.23-3.85,8.46-6.36c4.27-4.82,6.39-11.24,6.39-19.28C297.16,28.09,296.53,24.37,295.26,20.85z M273.68,42.43
	c-1.77,2.18-4.35,3.73-7.71,4.63c-3.36,0.9-7.51,1.36-12.43,1.36h-18.41V18.76h18.96c7.04,0,11.78,0.54,14.16,1.63
	c2.54,1.13,4.52,2.83,5.96,5.11c1.42,2.28,2.14,4.92,2.14,7.91C276.35,37.24,275.47,40.24,273.68,42.43z"/>
<path class="st0" d="M298.95,103.33c0,1.42-0.41,2.83-1.28,4.23c-0.85,1.4-2.01,2.49-3.48,3.31c-1.48,0.82-3.19,1.21-5.11,1.21
	c-2.32,0-4.25-0.59-5.82-1.74c-1.55-1.15-2.91-2.6-4.03-4.38c-1.14-1.76-2.67-4.35-4.6-7.79l-8.24-14.57
	c-2.95-5.36-5.59-9.42-7.91-12.23c-2.32-2.81-4.7-4.71-7.08-5.74c-2.4-1.05-5.43-1.55-9.07-1.55h-7.2v34.67
	c0,4.56-0.94,7.91-2.83,10.07c-1.89,2.18-4.35,3.25-7.4,3.25c-3.26,0-5.8-1.13-7.61-3.39c-1.79-2.24-2.69-5.57-2.69-9.92V57.65
	h67.72c-3.15,1.61-6.79,2.91-10.94,3.87c3.64,2.05,7.12,5.11,10.42,9.13c3.32,4.02,6.29,8.31,8.89,12.83
	c2.62,4.54,4.64,8.65,6.1,12.29C298.23,99.44,298.95,101.95,298.95,103.33z"/>
<path class="st4" d="M411.18,55.47c0.06,8.62-1,16.42-3.18,23.43c-2.1,6.8-5.29,12.73-9.54,17.73c-4.23,5-9.44,8.83-15.62,11.47
	c-6.18,2.66-13.26,3.98-21.22,3.98c-7.95,0-15.05-1.36-21.3-4.08c-6.27-2.72-11.51-6.55-15.7-11.51c-4.21-4.96-7.38-10.93-9.52-17.9
	c-2.19-7.1-3.25-14.81-3.2-23.11c0.01-0.01,0.01-0.01,0.02-0.02l20.81,0c0,0.19-0.02,0.36-0.02,0.54c0,6.13,0.73,11.68,2.18,16.64
	c1.46,4.94,3.5,9.06,6.16,12.33c2.64,3.25,5.68,5.69,9.13,7.31c3.42,1.63,7.2,2.43,11.29,2.43c5.27,0,10.09-1.38,14.5-4.19
	c4.41-2.81,7.91-7.12,10.5-12.96c2.62-5.84,3.91-13.02,3.91-21.56c0-0.19,0-0.36-0.02-0.54l20.81,0
	C411.17,55.46,411.17,55.47,411.18,55.47z"/>
<path class="st0" d="M411.16,55.46h-20.81c-0.04-7.66-1.24-14.34-3.58-19.99c-2.4-5.78-5.82-10.15-10.27-13.13
	s-9.56-4.46-15.32-4.46c-4.09,0-7.89,0.82-11.37,2.47c-3.48,1.63-6.47,4.04-8.99,7.18c-2.52,3.14-4.48,7.14-5.94,12.02
	c-1.42,4.75-2.12,10.05-2.16,15.91h-20.81c0.04-8.08,1.14-15.51,3.32-22.27c2.24-6.91,5.49-12.79,9.72-17.65
	c4.25-4.86,9.4-8.58,15.5-11.16c6.08-2.57,13-3.87,20.73-3.87c10.52,0,19.55,2.28,27.08,6.83c7.53,4.52,13.24,10.99,17.11,19.34
	C409.18,34.86,411.09,44.46,411.16,55.46z"/>
</svg>
