<?xml version="1.0" encoding="utf-8"?>
<!-- Generator: Adobe Illustrator 24.0.3, SVG Export Plug-In . SVG Version: 6.00 Build 0)  -->
<svg version="1.1" id="レイヤー_1" xmlns="http://www.w3.org/2000/svg" xmlns:xlink="http://www.w3.org/1999/xlink" x="0px"
	 y="0px" viewBox="0 0 431.75 173.55" style="enable-background:new 0 0 431.75 173.55;" xml:space="preserve">
<style type="text/css">
	.st0{clip-path:url(#SVGID_2_);}
	.st1{clip-path:url(#SVGID_4_);fill:#22AC38;}
	.st2{clip-path:url(#SVGID_4_);fill:none;stroke:#000000;stroke-width:1.6686;stroke-miterlimit:10;}
	.st3{clip-path:url(#SVGID_4_);fill:#FFFFFF;}
	.st4{clip-path:url(#SVGID_4_);fill:#E60012;}
	.st5{clip-path:url(#SVGID_4_);fill:#00A0E9;}
	.st6{clip-path:url(#SVGID_4_);fill:#FAEE00;}
	.st7{fill:url(#SVGID_5_);}
	.st8{fill:#22AC38;stroke:#000000;stroke-miterlimit:10;}
	.st9{fill:#00A0E9;stroke:#000000;stroke-miterlimit:10;}
	.st10{fill:#FFE200;stroke:#000000;stroke-miterlimit:10;}
	.st11{fill:#E60012;stroke:#000000;stroke-miterlimit:10;}
	.st12{fill:#FFFFFF;}
</style>
<g>
	<g id="RORO_1_">
		<g>
			<defs>
				<rect id="SVGID_1_" x="158.9" y="0" width="270.43" height="166.6"/>
			</defs>
			<clipPath id="SVGID_2_">
				<use xlink:href="#SVGID_1_"  style="overflow:visible;"/>
			</clipPath>
			<g class="st0">
				<defs>
					<rect id="SVGID_3_" x="158.9" y="0" width="270.43" height="166.6"/>
				</defs>
				<clipPath id="SVGID_4_">
					<use xlink:href="#SVGID_3_"  style="overflow:visible;"/>
				</clipPath>
				<path class="st1" d="M212.43,82.92c-2.25,2.66-5.02,4.69-8.32,6.12c2.22,2.29,4.33,5.67,6.34,10.16
					c2.02,4.48,3.82,9.25,5.4,14.29c1.59,5.07,2.83,9.64,3.71,13.71c0.88,4.06,1.32,6.87,1.32,8.41c0,1.59-0.25,3.15-0.76,4.72
					c-0.52,1.56-1.23,2.8-2.11,3.71c-0.89,0.91-1.93,1.35-3.1,1.35c-1.41,0.02-2.58-0.63-3.53-1.89c-0.95-1.28-1.78-2.92-2.46-4.88
					c-0.69-1.96-1.62-4.88-2.8-8.69l-5.01-16.25c-1.79-5.95-3.4-10.48-4.81-13.59c-1.42-3.13-2.85-5.25-4.3-6.4s-3.29-1.7-5.5-1.7
					L182.14,92l0.05,38.67c0,5.09-0.56,8.85-1.71,11.26c-1.14,2.41-2.64,3.62-4.48,3.64c-1.98,0-3.52-1.26-4.61-3.76
					c-1.1-2.52-1.65-6.21-1.65-11.09l-0.06-47.8"/>
				<path class="st2" d="M212.43,82.92c-2.25,2.66-5.02,4.69-8.32,6.12c2.22,2.29,4.33,5.67,6.34,10.16
					c2.02,4.48,3.82,9.25,5.4,14.29c1.59,5.07,2.83,9.64,3.71,13.71c0.88,4.06,1.32,6.87,1.32,8.41c0,1.59-0.25,3.15-0.76,4.72
					c-0.52,1.56-1.23,2.8-2.11,3.71c-0.89,0.91-1.93,1.35-3.1,1.35c-1.41,0.02-2.58-0.63-3.53-1.89c-0.95-1.28-1.78-2.92-2.46-4.88
					c-0.69-1.96-1.62-4.88-2.8-8.69l-5.01-16.25c-1.79-5.95-3.4-10.48-4.81-13.59c-1.42-3.13-2.85-5.25-4.3-6.4s-3.29-1.7-5.5-1.7
					L182.14,92l0.05,38.67c0,5.09-0.56,8.85-1.71,11.26c-1.14,2.41-2.64,3.62-4.48,3.64c-1.98,0-3.52-1.26-4.61-3.76
					c-1.1-2.52-1.65-6.21-1.65-11.09l-0.06-47.8"/>
				<path class="st3" d="M218.55,43.63c-0.78-3.9-1.91-7.33-3.39-10.3c-1.49-2.94-3.2-5.21-5.13-6.77c-1.6-1.42-3.39-2.36-5.37-2.83
					c-1.99-0.44-4.38-0.68-7.17-0.65l-20.25,0.07c-2.68,0.02-4.63,1.21-5.83,3.57c-1.19,2.36-1.79,6.16-1.79,11.42l0.05,44.79h42.75
					c1.32-1.56,2.47-3.34,3.42-5.35c2.59-5.37,3.86-12.54,3.85-21.53C219.7,51.69,219.31,47.53,218.55,43.63 M205.49,67.73
					c-1.07,2.45-2.64,4.18-4.67,5.21c-2.04,1.03-4.54,1.54-7.54,1.54l-11.15,0.05l-0.04-33.07l11.48-0.07c4.27,0,7.14,0.58,8.6,1.77
					c1.54,1.26,2.74,3.15,3.61,5.7c0.86,2.55,1.3,5.49,1.3,8.83C207.1,61.94,206.56,65.3,205.49,67.73"/>
				<path class="st2" d="M218.55,43.63c-0.78-3.9-1.91-7.33-3.39-10.3c-1.49-2.94-3.2-5.21-5.13-6.77c-1.6-1.42-3.39-2.36-5.37-2.83
					c-1.99-0.44-4.38-0.68-7.17-0.65l-20.25,0.07c-2.68,0.02-4.63,1.21-5.83,3.57c-1.19,2.36-1.79,6.16-1.79,11.42l0.05,44.79h42.75
					c1.32-1.56,2.47-3.34,3.42-5.35c2.59-5.37,3.86-12.54,3.85-21.53C219.7,51.69,219.31,47.53,218.55,43.63z M205.49,67.73
					c-1.07,2.45-2.64,4.18-4.67,5.21c-2.04,1.03-4.54,1.54-7.54,1.54l-11.15,0.05l-0.04-33.07l11.48-0.07c4.27,0,7.14,0.58,8.6,1.77
					c1.54,1.26,2.74,3.15,3.61,5.7c0.86,2.55,1.3,5.49,1.3,8.83C207.1,61.94,206.56,65.3,205.49,67.73z"/>
				<path class="st3" d="M288.86,82.32v0.77c0,9.32-0.64,17.77-1.92,25.38c-1.29,7.59-3.22,14.2-5.79,19.78
					c-2.56,5.58-5.72,9.85-9.47,12.8c-3.74,2.97-8.04,4.44-12.87,4.44c-4.81,0-9.11-1.52-12.91-4.55c-3.8-3.04-6.98-7.31-9.51-12.84
					c-2.54-5.53-4.47-12.19-5.77-19.97c-1.3-7.75-1.94-16.16-1.94-25.2c0-0.21,0.01-0.4,0.01-0.61h12.61c0,0.21-0.01,0.4-0.01,0.61
					c0,6.84,0.44,13.03,1.32,18.56c0.88,5.51,2.12,10.11,3.73,13.75c1.61,3.62,3.45,6.35,5.53,8.15c2.07,1.82,4.36,2.71,6.86,2.71
					c3.18,0,6.1-1.54,8.78-4.67c2.67-3.13,4.79-7.94,6.38-14.45c1.57-6.51,2.36-14.52,2.36-24.05v-0.61H288.86z"/>
				<path class="st2" d="M288.86,82.32v0.77c0,9.32-0.64,17.77-1.92,25.38c-1.29,7.59-3.22,14.2-5.79,19.78
					c-2.56,5.58-5.72,9.85-9.47,12.8c-3.74,2.97-8.04,4.44-12.87,4.44c-4.81,0-9.11-1.52-12.91-4.55c-3.8-3.04-6.98-7.31-9.51-12.84
					c-2.54-5.53-4.47-12.19-5.77-19.97c-1.3-7.75-1.94-16.16-1.94-25.2c0-0.21,0.01-0.4,0.01-0.61h12.61c0,0.21-0.01,0.4-0.01,0.61
					c0,6.84,0.44,13.03,1.32,18.56c0.88,5.51,2.12,10.11,3.73,13.75c1.61,3.62,3.45,6.35,5.53,8.15c2.07,1.82,4.36,2.71,6.86,2.71
					c3.18,0,6.1-1.54,8.78-4.67c2.67-3.13,4.79-7.94,6.38-14.45c1.57-6.51,2.36-14.52,2.36-24.05v-0.61H288.86z"/>
				<path class="st4" d="M288.86,82.32h-12.61c-0.04-8.55-0.76-16-2.18-22.3c-1.45-6.44-3.53-11.33-6.22-14.64
					c-2.69-3.32-5.78-4.97-9.28-4.97c-2.49,0-4.79,0.91-6.9,2.76c-2.11,1.82-3.92,4.51-5.45,8.01c-1.53,3.5-2.72,7.96-3.6,13.4
					c-0.86,5.3-1.29,11.21-1.31,17.75h-12.61c0.02-9.01,0.69-17.3,2.02-24.85c1.36-7.71,3.33-14.27,5.89-19.69
					c2.58-5.42,5.7-9.57,9.4-12.45c3.68-2.87,7.88-4.32,12.58-4.32c6.37,0,11.84,2.55,16.41,7.61c4.57,5.04,8.02,12.26,10.37,21.58
					C287.64,59.34,288.81,70.06,288.86,82.32"/>
				<path class="st2" d="M288.86,82.32h-12.61c-0.04-8.55-0.76-16-2.18-22.3c-1.45-6.44-3.53-11.33-6.22-14.64
					c-2.69-3.32-5.78-4.97-9.28-4.97c-2.49,0-4.79,0.91-6.9,2.76c-2.11,1.82-3.92,4.51-5.45,8.01c-1.53,3.5-2.72,7.96-3.6,13.4
					c-0.86,5.3-1.29,11.21-1.31,17.75h-12.61c0.02-9.01,0.69-17.3,2.02-24.85c1.36-7.71,3.33-14.27,5.89-19.69
					c2.58-5.42,5.7-9.57,9.4-12.45c3.68-2.87,7.88-4.32,12.58-4.32c6.37,0,11.84,2.55,16.41,7.61c4.57,5.04,8.02,12.26,10.37,21.58
					C287.64,59.34,288.81,70.06,288.86,82.32z"/>
				<path class="st5" d="M348.32,43.72c-0.76-3.9-1.9-7.33-3.37-10.3c-1.48-2.94-3.18-5.23-5.12-6.82c-1.59-1.4-3.37-2.36-5.37-2.83
					c-1.98-0.47-4.36-0.7-7.17-0.7h-20.25c-2.68,0-4.63,1.19-5.83,3.53c-1.19,2.36-1.8,6.16-1.8,11.42v46.75h41.05
					c2.06-1.94,3.78-4.3,5.13-7.1c2.59-5.37,3.88-12.54,3.88-21.51C349.48,51.8,349.09,47.65,348.32,43.72 M335.24,67.8
					c-1.07,2.43-2.64,4.16-4.67,5.16s-4.55,1.52-7.54,1.52h-11.16V41.39h11.49c4.27,0,7.14,0.61,8.58,1.82
					c1.54,1.26,2.74,3.15,3.61,5.7c0.86,2.55,1.3,5.49,1.3,8.83C336.86,62.01,336.32,65.35,335.24,67.8"/>
				<path class="st2" d="M348.32,43.72c-0.76-3.9-1.9-7.33-3.37-10.3c-1.48-2.94-3.18-5.23-5.12-6.82c-1.59-1.4-3.37-2.36-5.37-2.83
					c-1.98-0.47-4.36-0.7-7.17-0.7h-20.25c-2.68,0-4.63,1.19-5.83,3.53c-1.19,2.36-1.8,6.16-1.8,11.42v46.75h41.05
					c2.06-1.94,3.78-4.3,5.13-7.1c2.59-5.37,3.88-12.54,3.88-21.51C349.48,51.8,349.09,47.65,348.32,43.72z M335.24,67.8
					c-1.07,2.43-2.64,4.16-4.67,5.16s-4.55,1.52-7.54,1.52h-11.16V41.39h11.49c4.27,0,7.14,0.61,8.58,1.82
					c1.54,1.26,2.74,3.15,3.61,5.7c0.86,2.55,1.3,5.49,1.3,8.83C336.86,62.01,336.32,65.35,335.24,67.8z"/>
				<path class="st3" d="M350.56,135.73c0,1.59-0.25,3.15-0.78,4.72c-0.51,1.56-1.22,2.78-2.11,3.69c-0.89,0.91-1.93,1.35-3.1,1.35
					c-1.41,0-2.58-0.65-3.53-1.94c-0.94-1.28-1.76-2.9-2.44-4.88c-0.69-1.96-1.62-4.86-2.79-8.69l-5-16.25
					c-1.79-5.98-3.39-10.51-4.79-13.64s-2.85-5.25-4.29-6.4c-1.45-1.17-3.29-1.73-5.5-1.73h-4.36v38.67c0,5.09-0.57,8.83-1.72,11.23
					c-1.14,2.43-2.64,3.62-4.48,3.62c-1.98,0-3.52-1.26-4.61-3.78c-1.09-2.5-1.63-6.21-1.63-11.07V84.77h41.05
					c-1.91,1.8-4.11,3.25-6.63,4.32c2.21,2.29,4.32,5.7,6.32,10.18c2.02,4.48,3.82,9.27,5.39,14.31c1.59,5.07,2.81,9.64,3.7,13.71
					C350.12,131.38,350.56,134.19,350.56,135.73"/>
				<path class="st2" d="M350.56,135.73c0,1.59-0.25,3.15-0.78,4.72c-0.51,1.56-1.22,2.78-2.11,3.69c-0.89,0.91-1.93,1.35-3.1,1.35
					c-1.41,0-2.58-0.65-3.53-1.94c-0.94-1.28-1.76-2.9-2.44-4.88c-0.69-1.96-1.62-4.86-2.79-8.69l-5-16.25
					c-1.79-5.98-3.39-10.51-4.79-13.64s-2.85-5.25-4.29-6.4c-1.45-1.17-3.29-1.73-5.5-1.73h-4.36v38.67c0,5.09-0.57,8.83-1.72,11.23
					c-1.14,2.43-2.64,3.62-4.48,3.62c-1.98,0-3.52-1.26-4.61-3.78c-1.09-2.5-1.63-6.21-1.63-11.07V84.77h41.05
					c-1.91,1.8-4.11,3.25-6.63,4.32c2.21,2.29,4.32,5.7,6.32,10.18c2.02,4.48,3.82,9.27,5.39,14.31c1.59,5.07,2.81,9.64,3.7,13.71
					C350.12,131.38,350.56,134.19,350.56,135.73z"/>
				<path class="st3" d="M418.6,83.09c0,9.32-0.64,17.77-1.93,25.38c-1.28,7.59-3.21,14.2-5.78,19.78
					c-2.56,5.58-5.72,9.85-9.47,12.8c-3.74,2.97-8.04,4.44-12.87,4.44c-4.82,0-9.12-1.52-12.91-4.55c-3.8-3.04-6.98-7.31-9.51-12.84
					c-2.55-5.53-4.47-12.19-5.77-19.97c-1.3-7.75-1.94-16.16-1.94-25.2c0-0.21,0.01-0.4,0.01-0.61h12.61c0,0.21-0.01,0.4-0.01,0.61
					c0,6.84,0.44,13.03,1.32,18.56c0.88,5.51,2.12,10.11,3.73,13.75c1.6,3.62,3.45,6.35,5.53,8.15c2.07,1.82,4.36,2.71,6.84,2.71
					c3.2,0,6.12-1.54,8.79-4.67c2.67-3.13,4.79-7.94,6.37-14.45c1.59-6.51,2.37-14.52,2.37-24.05c0-0.21,0-0.4-0.01-0.61h12.61
					C418.6,82.58,418.6,82.84,418.6,83.09"/>
				<path class="st2" d="M418.6,83.09c0,9.32-0.64,17.77-1.93,25.38c-1.28,7.59-3.21,14.2-5.78,19.78
					c-2.56,5.58-5.72,9.85-9.47,12.8c-3.74,2.97-8.04,4.44-12.87,4.44c-4.82,0-9.12-1.52-12.91-4.55c-3.8-3.04-6.98-7.31-9.51-12.84
					c-2.55-5.53-4.47-12.19-5.77-19.97c-1.3-7.75-1.94-16.16-1.94-25.2c0-0.21,0.01-0.4,0.01-0.61h12.61c0,0.21-0.01,0.4-0.01,0.61
					c0,6.84,0.44,13.03,1.32,18.56c0.88,5.51,2.12,10.11,3.73,13.75c1.6,3.62,3.45,6.35,5.53,8.15c2.07,1.82,4.36,2.71,6.84,2.71
					c3.2,0,6.12-1.54,8.79-4.67c2.67-3.13,4.79-7.94,6.37-14.45c1.59-6.51,2.37-14.52,2.37-24.05c0-0.21,0-0.4-0.01-0.61h12.61
					C418.6,82.58,418.6,82.84,418.6,83.09z"/>
				<path class="st6" d="M418.58,82.32h-12.61c-0.02-8.55-0.75-16-2.17-22.3c-1.45-6.44-3.53-11.33-6.22-14.64
					c-2.69-3.32-5.79-4.97-9.29-4.97c-2.48,0-4.78,0.91-6.89,2.76c-2.11,1.82-3.92,4.51-5.45,8.01c-1.53,3.5-2.72,7.96-3.6,13.4
					c-0.86,5.3-1.29,11.21-1.31,17.75h-12.61c0.02-9.01,0.69-17.3,2.02-24.85c1.36-7.71,3.33-14.27,5.89-19.69
					c2.58-5.42,5.7-9.57,9.4-12.45c3.68-2.87,7.88-4.32,12.57-4.32c6.38,0,11.85,2.55,16.42,7.61c4.57,5.04,8.02,12.26,10.37,21.58
					C417.38,59.34,418.54,70.06,418.58,82.32"/>
				<path class="st2" d="M418.58,82.32h-12.61c-0.02-8.55-0.75-16-2.17-22.3c-1.45-6.44-3.53-11.33-6.22-14.64
					c-2.69-3.32-5.79-4.97-9.29-4.97c-2.48,0-4.78,0.91-6.89,2.76c-2.11,1.82-3.92,4.51-5.45,8.01c-1.53,3.5-2.72,7.96-3.6,13.4
					c-0.86,5.3-1.29,11.21-1.31,17.75h-12.61c0.02-9.01,0.69-17.3,2.02-24.85c1.36-7.71,3.33-14.27,5.89-19.69
					c2.58-5.42,5.7-9.57,9.4-12.45c3.68-2.87,7.88-4.32,12.57-4.32c6.38,0,11.85,2.55,16.42,7.61c4.57,5.04,8.02,12.26,10.37,21.58
					C417.38,59.34,418.54,70.06,418.58,82.32z"/>
			</g>
		</g>
	</g>
	<g>
		<g>
			<linearGradient id="SVGID_5_" gradientUnits="userSpaceOnUse" x1="2.4149" y1="171.0527" x2="429.3314" y2="171.0527">
				<stop  offset="0" style="stop-color:#FFF21F"/>
				<stop  offset="0.0595" style="stop-color:#FFE400"/>
				<stop  offset="0.1303" style="stop-color:#FED700"/>
				<stop  offset="0.2032" style="stop-color:#FDCF00"/>
				<stop  offset="0.2809" style="stop-color:#FCCD00"/>
				<stop  offset="0.6685" style="stop-color:#F1942E"/>
				<stop  offset="0.8876" style="stop-color:#EA652D"/>
				<stop  offset="1" style="stop-color:#E5352B"/>
			</linearGradient>
			<path class="st7" d="M2.41,173.55c55.67,0,111.34,0,167.02,0c55.39,0,110.78,0,166.17,0c31.24,0,62.49,0,93.73,0
				c3.22,0,3.22-5,0-5c-55.67,0-111.34,0-167.02,0c-55.39,0-110.78,0-166.17,0c-31.24,0-62.49,0-93.73,0
				C-0.8,168.55-0.81,173.55,2.41,173.55L2.41,173.55z"/>
		</g>
	</g>
	<path class="st8" d="M40.86,161.18H19.73c-2.65,0-4.79-1.91-4.79-4.27V88.73c0-2.36-2.14-4.27-4.79-4.27
		c-2.86,0-4.81-2.09-4.81-4.3c0-0.94,0.35-1.9,1.15-2.73l34.36-36.1"/>
	<path class="st9" d="M122.6,161.18H82.12V4.2c3.6-0.01,7.2,1.34,9.74,4.01l18.46,19.39c0.73,0.77,1.14,1.75,1.14,2.76V28.8
		l4.24,4.45V20.31c0-3.05,2.78-5.52,6.2-5.52h0.71"/>
	<path class="st10" d="M122.6,161.18h21.91c2.65,0,4.79-1.91,4.79-4.27V88.73c0-2.36,2.14-4.27,4.79-4.27h0.01
		c4.08,0,6.3-4.26,3.66-7.03l-19.6-20.59c0.01-0.05,0.01-0.1,0.01-0.16V20.31c0-3.05-2.77-5.52-6.19-5.52h-9.37"/>
	<path class="st11" d="M82.12,4.2v156.98H40.86V41.34L72.39,8.21C74.94,5.53,78.53,4.2,82.12,4.2z"/>
	<path d="M116.26,48.21h-0.5v-0.02C115.92,48.21,116.09,48.21,116.26,48.21z"/>
	<path d="M116.26,48.21h-0.5v-0.02C115.92,48.21,116.09,48.21,116.26,48.21z"/>
	<path d="M116.26,48.21h-0.5v-0.02C115.92,48.21,116.09,48.21,116.26,48.21z"/>
	<rect x="58.5" y="84.82" class="st12" width="17.61" height="15.69"/>
	<rect x="58.5" y="106.83" class="st12" width="17.61" height="15.69"/>
	<rect x="85.4" y="84.82" class="st12" width="17.61" height="15.69"/>
	<rect x="85.4" y="106.83" class="st12" width="17.61" height="15.69"/>
</g>
</svg>
